<svg viewBox="0 0 18 18" fill="none" xmlns="http://www.w3.org/2000/svg">
	<path d="M9 3C10.5913 3 12.1174 3.63214 13.2426 4.75736C14.3679 5.88258 15 7.4087 15 9" stroke="currentColor" stroke-width="1.5" stroke-linecap="round" stroke-linejoin="round"/>
	<path d="M3.75008 13.5C3.1733 12.0731 2.91726 10.5368 3.00008 9C3.00206 8.01854 3.24479 7.05255 3.70696 6.18672C4.16914 5.32088 4.83666 4.58165 5.65101 4.03382C6.46535 3.48598 7.40165 3.14629 8.37782 3.0445C9.354 2.94272 10.3402 3.08195 11.2501 3.45" stroke="currentColor" stroke-width="1.5" stroke-linecap="round" stroke-linejoin="round"/>
	<path d="M6.37495 15C5.3124 13.1921 4.9145 11.07 5.24995 8.99999C5.3502 8.3101 5.64078 7.66182 6.08905 7.12792C6.53733 6.59402 7.12556 6.19565 7.7877 5.97753C8.44983 5.75942 9.15966 5.73019 9.83749 5.89314C10.5153 6.05608 11.1343 6.40475 11.6249 6.89999" stroke="currentColor" stroke-width="1.5" stroke-linecap="round" stroke-linejoin="round"/>
	<path d="M8.62499 15.75C7.74396 14.1497 7.47728 12.2829 7.87499 10.5C7.87499 10.0027 8.07253 9.52581 8.42416 9.17417C8.77579 8.82254 9.2527 8.625 9.74999 8.625C10.2473 8.625 10.7242 8.82254 11.0758 9.17417C11.4274 9.52581 11.625 10.0027 11.625 10.5C11.625 11.7 11.7 12.9 12.075 14.025" stroke="currentColor" stroke-width="1.5" stroke-linecap="round" stroke-linejoin="round"/>
</svg>
