<svg width="20" height="20" viewBox="0 0 20 20" fill="none" xmlns="http://www.w3.org/2000/svg">
	<path d="M14.1667 15.8333V14.1667C14.1667 13.2826 13.8155 12.4348 13.1904 11.8096C12.5652 11.1845 11.7174 10.8333 10.8333 10.8333H4.16667C3.28261 10.8333 2.43477 11.1845 1.80964 11.8096C1.18452 12.4348 0.833336 13.2826 0.833336 14.1667V15.8333" stroke="#009349" stroke-width="1.66667" stroke-linecap="round" stroke-linejoin="round"/>
	<path d="M7.5 7.5C9.34095 7.5 10.8333 6.00761 10.8333 4.16667C10.8333 2.32572 9.34095 0.833336 7.5 0.833336C5.65905 0.833336 4.16667 2.32572 4.16667 4.16667C4.16667 6.00761 5.65905 7.5 7.5 7.5Z" stroke="#009349" stroke-width="1.66667" stroke-linecap="round" stroke-linejoin="round"/>
	<path d="M19.1667 15.8333V14.1667C19.1654 13.4347 18.9248 12.723 18.4795 12.142C18.0342 11.561 17.4087 11.1423 16.6946 10.947" stroke="#009349" stroke-width="1.66667" stroke-linecap="round" stroke-linejoin="round"/>
	<path d="M14.1667 7.5C14.739 7.49963 15.3023 7.3417 15.7951 7.04355C16.2878 6.7454 16.6908 6.31882 16.9599 5.81048C17.2289 5.30215 17.3533 4.73214 17.3195 4.1627C17.2857 3.59326 17.095 3.04715 16.7686 2.58438" stroke="#009349" stroke-width="1.66667" stroke-linecap="round" stroke-linejoin="round"/>
</svg>
