<svg width="18" height="18" viewBox="0 0 18 18" fill="none" xmlns="http://www.w3.org/2000/svg">
<path d="M9 15.75C9 15.75 3.75 11.4 3.75 7.5C3.75 6.10761 4.30312 4.77226 5.28769 3.78769C6.27226 2.80312 7.60761 2.25 9 2.25C10.3924 2.25 11.7277 2.80312 12.7123 3.78769C13.6969 4.77226 14.25 6.10761 14.25 7.5C14.25 11.4 9 15.75 9 15.75Z" stroke="#033069" stroke-width="1.58333" stroke-linecap="round" stroke-linejoin="round"/>
<path d="M8.99995 9.3C9.99406 9.3 10.8 8.49411 10.8 7.5C10.8 6.50588 9.99406 5.7 8.99995 5.7C8.00584 5.7 7.19995 6.50588 7.19995 7.5C7.19995 8.49411 8.00584 9.3 8.99995 9.3Z" stroke="#033069" stroke-width="1.58333" stroke-linecap="round" stroke-linejoin="round"/>
</svg>
