<svg width="16" height="16" viewBox="0 0 16 16" fill="none" xmlns="http://www.w3.org/2000/svg">
<path d="M2.6665 4.66669C2.6665 3.72388 2.6665 3.25247 2.9594 2.95958C3.25229 2.66669 3.72369 2.66669 4.6665 2.66669C5.60931 2.66669 6.08072 2.66669 6.37361 2.95958C6.6665 3.25247 6.6665 3.72388 6.6665 4.66669V11.3334C6.6665 12.2762 6.6665 12.7476 6.37361 13.0405C6.08072 13.3334 5.60931 13.3334 4.6665 13.3334C3.72369 13.3334 3.25229 13.3334 2.9594 13.0405C2.6665 12.7476 2.6665 12.2762 2.6665 11.3334V4.66669Z" stroke="currentColor" stroke-width="1.5"/>
<path d="M9.3335 4.66669C9.3335 3.72388 9.3335 3.25247 9.62639 2.95958C9.91928 2.66669 10.3907 2.66669 11.3335 2.66669C12.2763 2.66669 12.7477 2.66669 13.0406 2.95958C13.3335 3.25247 13.3335 3.72388 13.3335 4.66669V11.3334C13.3335 12.2762 13.3335 12.7476 13.0406 13.0405C12.7477 13.3334 12.2763 13.3334 11.3335 13.3334C10.3907 13.3334 9.91928 13.3334 9.62639 13.0405C9.3335 12.7476 9.3335 12.2762 9.3335 11.3334V4.66669Z" stroke="currentColor" stroke-width="1.5"/>
</svg>
